{"title":"Bottersnikes &amp; Gumbles - 4. The Spangler","uid":15440913,"size":218073283,"categoryP":"video","categoryS":"hd___tv_shows","magnet":"?xt=urn:btih:44d17862830045971af95a97f9e0167cac717ee4&amp;dn=Bottersnikes+%26amp%3B+Gumbles+-+4.+The+Spangler&amp;tr=udp%3A%2F%2Ftracker.leechers-paradise.org%3A6969&amp;tr=udp%3A%2F%2Fzer0day.ch%3A1337&amp;tr=udp%3A%2F%2Fopen.demonii.com%3A1337&amp;tr=udp%3A%2F%2Ftracker.coppersurfer.tk%3A6969&amp;tr=udp%3A%2F%2Fexodus.desync.com%3A6969","seeders":2,"leechers":0,"uploader":"RoaElson","files":2,"time":1469818371,"description":"Bottersnikes &amp; Gumbles - 4. The Spangler\r\n\r\nWhen the ball from their game of pock-pock ends up in the hands of the Bottersnikes, Tink, Bounce and Willi try to retrieve it, but Bounce ends up spanging herself when she overstretches, leaving her miserable and unable to gumble.\r\n\r\nDuration: 12 minutes\r\n\r\nMedia info:-\r\n\r\nGeneral\r\nThe Spangler.mp4\r\nFormat : MPEG-4\r\nFormat profile : Base Media\r\nCodec ID : isom (isom/iso2/avc1/mp41)\r\nFile size : 207 MiB\r\nDuration : 11mn 59s\r\nOverall bit rate mode : Variable\r\nOverall bit rate : 2 411 Kbps\r\n\r\nVideo\r\nID : 1\r\nFormat : AVC\r\nFormat/Info : Advanced Video Codec\r\nFormat profile :   \r\nFormat settings, CABAC : Yes\r\nFormat settings, ReFrames : 2 frames\r\nCodec ID : avc1\r\nCodec ID/Info : Advanced Video Coding\r\nDuration : 11mn 59s\r\nBit rate mode : Variable\r\nBit rate : 2 311 Kbps\r\nMaximum bit rate : 3 500 Kbps\r\nWidth : 1 280 pixels\r\nHeight : 720 pixels\r\nDisplay aspect ratio : 16:9\r\nFrame rate mode : Constant\r\nFrame rate : 25.000 fps\r\nColor space : YUV\r\nChroma subsampling : 4:2:0\r\nBit depth : 8 bits\r\nScan type : Progressive\r\nBits/(Pixel*Frame) : 0.100\r\nStream size : 198 MiB (96%)\r\n\r\nAudio\r\nID : 2\r\nFormat : AAC\r\nFormat/Info : Advanced Audio Codec\r\nFormat profile : LC\r\nCodec ID : 40\r\nDuration : 11mn 59s\r\nBit rate mode : Constant\r\nBit rate : 93.5 Kbps\r\nChannel(s) : 2 channels\r\nChannel positions : Front: L R\r\nSampling rate : 48.0 KHz\r\nFrame rate : 46.875 fps (1024 spf)\r\nCompression mode : Lossy\r\nStream size : 8.02 MiB (4%)","torrent":{"xt":"urn:btih:44d17862830045971af95a97f9e0167cac717ee4","amp;dn":"Bottersnikes+%26amp%3B+Gumbles+-+4.+The+Spangler","amp;tr":["udp%3A%2F%2Ftracker.leechers-paradise.org%3A6969","udp%3A%2F%2Fzer0day.ch%3A1337","udp%3A%2F%2Fopen.demonii.com%3A1337","udp%3A%2F%2Ftracker.coppersurfer.tk%3A6969","udp%3A%2F%2Fexodus.desync.com%3A6969"],"infoHash":"44d17862830045971af95a97f9e0167cac717ee4","infoHashBuffer":{"type":"Buffer","data":[68,209,120,98,131,0,69,151,26,249,90,151,249,224,22,124,172,113,126,228]},"announce":[],"urlList":[]}}